<?xml version="1.0" encoding="UTF-8"?>
<svg id="Capa_1" data-name="Capa 1" xmlns="http://www.w3.org/2000/svg" version="1.1" viewBox="0 0 4435 1269">
  <defs>
    <style>
      .cls-1 {
        fill: #1d1d1b;
        opacity: .65;
      }

      .cls-1, .cls-2, .cls-3, .cls-4, .cls-5, .cls-6 {
        stroke-width: 0px;
      }

      .cls-2 {
        fill: #003a57;
      }

      .cls-3 {
        fill: #109ba8;
      }

      .cls-4 {
        fill: #f0e7d8;
      }

      .cls-5 {
        fill: #e38516;
      }

      .cls-6 {
        fill: #fff;
      }
    </style>
  </defs>
  <rect class="cls-4" x="232" y="231" width="3971" height="802"/>
  <rect class="cls-1" x="232" y="231" width="3971" height="802"/>
  <g>
    <path class="cls-6" d="M703.03,454.54v111.9h-12.71v-50.98h-65.97v50.98h-12.71v-111.9h12.71v48.87h65.97v-48.87h12.71Z"/>
    <path class="cls-6" d="M796.68,515.14v51.31h-12.22v-13.19c-6.03,9.94-18.57,15.15-29.65,15.15-17.75,0-30.79-10.26-30.79-26.88s14.99-28.02,33.07-28.02c9.12,0,18.73,1.95,27.37,4.72v-3.09c0-11.4-4.56-24.43-22.8-24.43-8.47,0-16.94,3.75-24.6,7.66l-4.89-9.94c12.05-6.03,22.15-8.14,30.3-8.14,22.97,0,34.21,14.5,34.21,34.86ZM784.47,540.06v-12.87c-7.66-2.12-16.29-3.42-25.41-3.42-12.54,0-23.13,7.17-23.13,17.27s9.12,16.61,21.01,16.61c11.08,0,24.27-5.7,27.53-17.59Z"/>
    <path class="cls-6" d="M818.02,556.84l49.68-63.04h-48.7v-11.56h65.15v9.61l-49.84,63.04h50.17v11.57h-66.46v-9.61Z"/>
    <path class="cls-6" d="M948,524.26c0-23.94,20.04-43.98,43.65-43.98,11.4,0,21.99,4.72,29.97,12.38l-8.47,8.31c-5.54-6.03-13.19-9.77-21.5-9.77-16.78,0-30.79,15.15-30.79,33.07s14.01,33.23,30.79,33.23c8.47,0,16.29-3.91,21.99-10.26l8.47,8.31c-7.98,7.98-18.73,12.87-30.46,12.87-23.62,0-43.65-20.2-43.65-44.14Z"/>
    <path class="cls-6" d="M1040.84,452.59h12.22v113.86h-12.22v-113.86Z"/>
    <path class="cls-6" d="M1075.69,458.78c0-4.24,3.58-7.98,8.14-7.98s7.98,3.75,7.98,7.98-3.58,8.14-7.98,8.14-8.14-3.75-8.14-8.14ZM1077.65,482.24h12.22v84.21h-12.22v-84.21Z"/>
    <path class="cls-6" d="M1109.89,524.26c0-23.94,20.04-43.98,43.65-43.98,11.4,0,21.99,4.72,29.97,12.38l-8.47,8.31c-5.54-6.03-13.19-9.77-21.5-9.77-16.78,0-30.79,15.15-30.79,33.07s14.01,33.23,30.79,33.23c8.47,0,16.29-3.91,21.99-10.26l8.47,8.31c-7.98,7.98-18.73,12.87-30.46,12.87-23.62,0-43.65-20.2-43.65-44.14Z"/>
    <path class="cls-6" d="M1318.38,515.14v51.31h-12.22v-13.19c-6.03,9.94-18.57,15.15-29.65,15.15-17.75,0-30.79-10.26-30.79-26.88s14.99-28.02,33.07-28.02c9.12,0,18.73,1.95,27.37,4.72v-3.09c0-11.4-4.56-24.43-22.8-24.43-8.47,0-16.94,3.75-24.6,7.66l-4.89-9.94c12.05-6.03,22.15-8.14,30.3-8.14,22.97,0,34.21,14.5,34.21,34.86ZM1306.17,540.06v-12.87c-7.66-2.12-16.29-3.42-25.41-3.42-12.54,0-23.13,7.17-23.13,17.27s9.12,16.61,21.01,16.61c11.08,0,24.27-5.7,27.53-17.59Z"/>
    <path class="cls-6" d="M1421.32,482.24v112.23h-12.22v-43.82c-6.35,11.08-17.1,17.75-30.62,17.75-22.15,0-38.77-18.24-38.77-44.14s16.61-43.98,38.77-43.98c13.52,0,24.27,6.68,30.62,17.75v-15.8h12.22ZM1409.11,524.26c0-19.38-11.73-33.07-28.34-33.07s-28.18,13.68-28.18,33.07,11.73,33.23,28.18,33.23,28.34-13.85,28.34-33.23Z"/>
    <path class="cls-6" d="M1518.72,482.24v84.21h-12.22v-13.52c-4.89,8.96-15.8,15.47-27.69,15.47-18.57,0-31.6-13.52-31.6-32.58v-53.59h12.22v51.96c0,13.68,8.63,23.29,21.01,23.29,14.17,0,26.06-9.94,26.06-21.66v-53.59h12.22Z"/>
    <path class="cls-6" d="M1543.48,482.24h12.22v84.21h-12.22v-84.21ZM1564.49,449.17l12.87,2.93-23.13,20.52h-9.45l19.71-23.46Z"/>
    <path class="cls-6" d="M1710.27,524.26c0,25.9-16.61,44.14-38.77,44.14-13.52,0-24.27-6.68-30.62-17.75v43.82h-12.22v-112.23h12.22v15.8c6.35-11.08,17.1-17.75,30.62-17.75,22.15,0,38.77,18.24,38.77,43.98ZM1697.4,524.26c0-19.38-11.73-33.07-28.18-33.07s-28.34,13.68-28.34,33.07,11.73,33.23,28.34,33.23,28.18-13.85,28.18-33.23Z"/>
    <path class="cls-6" d="M1799.85,515.14v51.31h-12.22v-13.19c-6.03,9.94-18.57,15.15-29.65,15.15-17.75,0-30.79-10.26-30.79-26.88s14.99-28.02,33.07-28.02c9.12,0,18.73,1.95,27.36,4.72v-3.09c0-11.4-4.56-24.43-22.8-24.43-8.47,0-16.94,3.75-24.6,7.66l-4.89-9.94c12.05-6.03,22.15-8.14,30.3-8.14,22.97,0,34.21,14.5,34.21,34.86ZM1787.63,540.06v-12.87c-7.66-2.12-16.29-3.42-25.41-3.42-12.54,0-23.13,7.17-23.13,17.27s9.12,16.61,21.01,16.61c11.08,0,24.27-5.7,27.53-17.59Z"/>
    <path class="cls-6" d="M1870.7,480.28v10.91c-19.06,0-32.58,11.73-32.58,28.18v47.07h-12.22v-84.21h12.22v16.45c5.05-11.24,17.1-18.41,32.58-18.41Z"/>
    <path class="cls-6" d="M1956.05,515.14v51.31h-12.22v-13.19c-6.03,9.94-18.57,15.15-29.65,15.15-17.75,0-30.79-10.26-30.79-26.88s14.99-28.02,33.07-28.02c9.12,0,18.73,1.95,27.36,4.72v-3.09c0-11.4-4.56-24.43-22.8-24.43-8.47,0-16.94,3.75-24.6,7.66l-4.89-9.94c12.05-6.03,22.15-8.14,30.3-8.14,22.97,0,34.21,14.5,34.21,34.86ZM1943.83,540.06v-12.87c-7.66-2.12-16.29-3.42-25.41-3.42-12.54,0-23.13,7.17-23.13,17.27s9.12,16.61,21.01,16.61c11.08,0,24.27-5.7,27.53-17.59Z"/>
    <path class="cls-6" d="M2023.64,524.26c0-23.94,20.04-43.98,43.65-43.98,11.4,0,21.99,4.72,29.97,12.38l-8.47,8.31c-5.54-6.03-13.19-9.77-21.5-9.77-16.78,0-30.79,15.15-30.79,33.07s14.01,33.23,30.79,33.23c8.47,0,16.29-3.91,21.99-10.26l8.47,8.31c-7.98,7.98-18.73,12.87-30.46,12.87-23.62,0-43.65-20.2-43.65-44.14Z"/>
    <path class="cls-6" d="M2110.13,524.26c0-23.94,20.04-43.98,43.65-43.98s43.49,20.04,43.49,43.98-19.87,44.14-43.49,44.14-43.65-20.2-43.65-44.14ZM2184.41,524.26c0-17.92-14.01-33.07-30.62-33.07s-30.79,15.15-30.79,33.07,14.01,33.23,30.79,33.23,30.62-15.15,30.62-33.23Z"/>
    <path class="cls-6" d="M2289.14,512.86v53.59h-12.22v-51.96c0-13.68-8.63-23.29-21.01-23.29-14.17,0-26.06,9.94-26.06,21.66v53.59h-12.22v-84.21h12.22v13.52c4.89-8.96,15.8-15.47,27.69-15.47,18.57,0,31.6,13.52,31.6,32.58Z"/>
    <path class="cls-6" d="M2309.34,524.26c0-23.94,20.04-43.98,43.65-43.98s43.49,20.04,43.49,43.98-19.87,44.14-43.49,44.14-43.65-20.2-43.65-44.14ZM2383.61,524.26c0-17.92-14.01-33.07-30.62-33.07s-30.79,15.15-30.79,33.07,14.01,33.23,30.79,33.23,30.62-15.15,30.62-33.23Z"/>
    <path class="cls-6" d="M2412.11,524.26c0-23.94,20.04-43.98,43.65-43.98,11.4,0,21.99,4.72,29.97,12.38l-8.47,8.31c-5.54-6.03-13.19-9.77-21.5-9.77-16.78,0-30.79,15.15-30.79,33.07s14.01,33.23,30.79,33.23c8.47,0,16.29-3.91,21.99-10.26l8.47,8.31c-7.98,7.98-18.73,12.87-30.46,12.87-23.62,0-43.65-20.2-43.65-44.14Z"/>
    <path class="cls-6" d="M2569.46,547.39l7.49,7.98c-7.33,7.98-22.15,13.03-33.88,13.03-22.48,0-42.68-18.41-42.68-44.31s18.9-43.82,41.54-43.82c25.41,0,39.91,19.22,39.91,48.7h-68.9c1.79,16.45,13.36,28.51,29.97,28.51,9.94,0,21.34-4.4,26.55-10.1ZM2513.1,518.07h56.69c-1.63-15.15-10.59-26.88-27.37-26.88-14.99,0-27.04,10.59-29.32,26.88Z"/>
    <path class="cls-6" d="M2647.8,480.28v10.91c-19.06,0-32.58,11.73-32.58,28.18v47.07h-12.22v-84.21h12.22v16.45c5.05-11.24,17.1-18.41,32.58-18.41Z"/>
    <path class="cls-6" d="M2711.97,452.59h12.22v113.86h-12.22v-113.86Z"/>
    <path class="cls-6" d="M2744.38,524.26c0-23.94,20.04-43.98,43.65-43.98s43.49,20.04,43.49,43.98-19.87,44.14-43.49,44.14-43.65-20.2-43.65-44.14ZM2818.66,524.26c0-17.92-14.01-33.07-30.62-33.07s-30.79,15.15-30.79,33.07,14.01,33.23,30.79,33.23,30.62-15.15,30.62-33.23Z"/>
    <path class="cls-6" d="M2846.67,555.86l6.35-8.96c9.61,7,19.22,10.59,28.5,10.59,11.08,0,18.57-5.21,18.57-13.19,0-9.12-9.77-12.05-21.17-15.31-20.36-5.86-28.18-11.89-28.18-23.94,0-15.31,12.71-24.76,29.48-24.76,10.42,0,21.18,3.58,30.13,9.45l-5.86,9.45c-8.47-5.38-16.78-7.98-24.27-7.98-9.45,0-17.27,4.23-17.27,12.38,0,7.33,6.19,9.61,21.83,14.66,13.52,4.23,27.53,8.8,27.53,24.76s-13.36,25.41-30.79,25.41c-11.73,0-24.76-4.4-34.86-12.54Z"/>
    <path class="cls-6" d="M3057.77,452.59v113.86h-12.22v-15.8c-6.35,11.08-17.1,17.75-30.62,17.75-22.15,0-38.77-18.24-38.77-44.14s16.61-43.98,38.77-43.98c13.52,0,24.27,6.68,30.62,17.75v-45.45h12.22ZM3045.55,524.26c0-19.38-11.73-33.07-28.34-33.07s-28.18,13.68-28.18,33.07,11.73,33.23,28.18,33.23,28.34-13.85,28.34-33.23Z"/>
    <path class="cls-6" d="M3148.16,547.39l7.49,7.98c-7.33,7.98-22.15,13.03-33.88,13.03-22.48,0-42.68-18.41-42.68-44.31s18.9-43.82,41.54-43.82c25.41,0,39.91,19.22,39.91,48.7h-68.9c1.79,16.45,13.36,28.51,29.97,28.51,9.94,0,21.34-4.4,26.55-10.1ZM3091.8,518.07h56.69c-1.63-15.15-10.59-26.88-27.37-26.88-14.99,0-27.04,10.59-29.32,26.88Z"/>
    <path class="cls-6" d="M3223.57,563.03c-4.4,3.42-9.94,5.38-15.64,5.38-12.05,0-20.52-8.96-20.52-21.5v-53.75h-13.19v-10.91h13.19v-23.13h12.22v23.13h20.69v10.91h-20.69v53.75c0,6.19,4.24,10.59,9.12,10.59,3.75,0,7-1.47,8.8-3.42l6.03,8.96Z"/>
    <path class="cls-6" d="M3309.25,515.14v51.31h-12.22v-13.19c-6.03,9.94-18.57,15.15-29.65,15.15-17.75,0-30.79-10.26-30.79-26.88s14.99-28.02,33.07-28.02c9.12,0,18.73,1.95,27.36,4.72v-3.09c0-11.4-4.56-24.43-22.8-24.43-8.47,0-16.94,3.75-24.6,7.66l-4.89-9.94c12.05-6.03,22.15-8.14,30.3-8.14,22.97,0,34.21,14.5,34.21,34.86ZM3297.03,540.06v-12.87c-7.66-2.12-16.29-3.42-25.41-3.42-12.54,0-23.13,7.17-23.13,17.27s9.12,16.61,21.01,16.61c11.08,0,24.27-5.7,27.53-17.59Z"/>
    <path class="cls-6" d="M3334.17,452.59h12.22v113.86h-12.22v-113.86Z"/>
    <path class="cls-6" d="M3371.14,452.59h12.22v113.86h-12.22v-113.86Z"/>
    <path class="cls-6" d="M3472.61,547.39l7.49,7.98c-7.33,7.98-22.15,13.03-33.88,13.03-22.48,0-42.68-18.41-42.68-44.31s18.9-43.82,41.54-43.82c25.41,0,39.91,19.22,39.91,48.7h-68.9c1.79,16.45,13.36,28.51,29.97,28.51,9.94,0,21.34-4.4,26.55-10.1ZM3416.25,518.07h56.69c-1.63-15.15-10.59-26.88-27.37-26.88-14.99,0-27.04,10.59-29.32,26.88Z"/>
    <path class="cls-6" d="M3499.97,555.86l6.35-8.96c9.61,7,19.22,10.59,28.5,10.59,11.08,0,18.57-5.21,18.57-13.19,0-9.12-9.77-12.05-21.17-15.31-20.36-5.86-28.18-11.89-28.18-23.94,0-15.31,12.71-24.76,29.48-24.76,10.42,0,21.18,3.58,30.13,9.45l-5.86,9.45c-8.47-5.38-16.78-7.98-24.27-7.98-9.45,0-17.27,4.23-17.27,12.38,0,7.33,6.19,9.61,21.83,14.66,13.52,4.23,27.53,8.8,27.53,24.76s-13.36,25.41-30.79,25.41c-11.73,0-24.76-4.4-34.86-12.54Z"/>
    <path class="cls-6" d="M3711.07,452.59v113.86h-12.22v-15.8c-6.35,11.08-17.1,17.75-30.62,17.75-22.15,0-38.77-18.24-38.77-44.14s16.61-43.98,38.77-43.98c13.52,0,24.27,6.68,30.62,17.75v-45.45h12.22ZM3698.85,524.26c0-19.38-11.73-33.07-28.34-33.07s-28.18,13.68-28.18,33.07,11.73,33.23,28.18,33.23,28.34-13.85,28.34-33.23Z"/>
    <path class="cls-6" d="M3801.46,547.39l7.49,7.98c-7.33,7.98-22.15,13.03-33.88,13.03-22.48,0-42.68-18.41-42.68-44.31s18.9-43.82,41.54-43.82c25.41,0,39.91,19.22,39.91,48.7h-68.9c1.79,16.45,13.36,28.51,29.97,28.51,9.94,0,21.34-4.4,26.55-10.1ZM3745.1,518.07h56.69c-1.63-15.15-10.59-26.88-27.37-26.88-14.99,0-27.04,10.59-29.32,26.88Z"/>
    <path class="cls-6" d="M3833.87,452.59h12.22v113.86h-12.22v-113.86Z"/>
    <path class="cls-6" d="M574.02,650h53.59c25.08,0,42.84,16.13,42.84,39.09s-17.75,39.09-42.84,39.09h-21.99v33.72h-31.6v-111.9ZM625,699.52c7.49,0,12.87-4.4,12.87-10.42s-5.38-10.42-12.87-10.42h-19.38v20.85h19.38Z"/>
    <path class="cls-6" d="M766.87,733.73v28.18h-83.72v-111.9h31.6v83.72h52.12Z"/>
    <path class="cls-6" d="M851.08,746.92h-38.93l-5.7,14.99h-35.67l43-111.9h35.67l43,111.9h-35.67l-5.7-14.99ZM842.12,723.63l-10.42-27.2-10.59,27.2h21.01Z"/>
    <path class="cls-6" d="M902.38,650h31.6l43.65,59.94v-59.94h31.6v111.9h-31.6l-43.65-59.94v59.94h-31.6v-111.9Z"/>
    <path class="cls-6" d="M1073.73,650h31.6v111.9h-31.6v-111.9Z"/>
    <path class="cls-6" d="M1125.36,650h31.6l43.65,59.94v-59.94h31.6v111.9h-31.6l-43.65-59.94v59.94h-31.6v-111.9Z"/>
    <path class="cls-6" d="M1278.8,678.18h-33.07v-28.18h97.73v28.18h-33.07v83.72h-31.6v-83.72Z"/>
    <path class="cls-6" d="M1388.41,678.18v12.54h53.26v28.18h-53.26v14.82h58.48v28.18h-90.08v-111.9h90.08v28.18h-58.48Z"/>
    <path class="cls-6" d="M1514.16,696.43h52.45v47.56c-11.56,12.54-28.67,19.87-46.26,19.87-33.55,0-61.73-26.55-61.73-57.99s28.18-57.83,61.73-57.83c17.59,0,34.7,7.33,46.26,19.71l-23.29,20.36c-5.54-7.17-14.01-11.4-22.97-11.4-15.8,0-29.16,13.36-29.16,29.16s13.36,29.32,29.16,29.32c5.54,0,10.91-1.63,15.64-4.56v-10.91h-21.83v-23.29Z"/>
    <path class="cls-6" d="M1648.53,761.91l-23.62-33.72h-9.77v33.72h-31.6v-111.9h53.59c25.08,0,42.84,16.13,42.84,39.09,0,15.96-8.47,28.51-22.15,34.86l26.71,37.95h-36ZM1615.14,699.52h19.38c7.49,0,12.87-4.4,12.87-10.42s-5.38-10.42-12.87-10.42h-19.38v20.85Z"/>
    <path class="cls-6" d="M1767.76,746.92h-38.93l-5.7,14.99h-35.67l43-111.9h35.67l43,111.9h-35.67l-5.7-14.99ZM1758.8,723.63l-10.42-27.2-10.59,27.2h21.01Z"/>
    <path class="cls-6" d="M1902.79,733.73v28.18h-83.72v-111.9h31.6v83.72h52.12Z"/>
    <path class="cls-6" d="M1960.61,650h41.7c39.09,0,66.78,23.13,66.78,55.87s-27.69,56.03-66.78,56.03h-41.7v-111.9ZM2007.52,733.24c16.94,0,28.99-11.4,28.99-27.37s-12.05-27.2-28.99-27.2h-15.31v54.57h15.31Z"/>
    <path class="cls-6" d="M2115.99,678.18v12.54h53.26v28.18h-53.26v14.82h58.48v28.18h-90.08v-111.9h90.08v28.18h-58.48Z"/>
    <path class="cls-6" d="M2286.04,696.43h52.45v47.56c-11.56,12.54-28.67,19.87-46.26,19.87-33.55,0-61.73-26.55-61.73-57.99s28.18-57.83,61.73-57.83c17.59,0,34.7,7.33,46.26,19.71l-23.29,20.36c-5.54-7.17-14.01-11.4-22.97-11.4-15.8,0-29.16,13.36-29.16,29.16s13.36,29.32,29.16,29.32c5.54,0,10.91-1.63,15.64-4.56v-10.91h-21.83v-23.29Z"/>
    <path class="cls-6" d="M2387.02,678.18v12.54h53.26v28.18h-53.26v14.82h58.48v28.18h-90.08v-111.9h90.08v28.18h-58.48Z"/>
    <path class="cls-6" d="M2452.99,744.97l17.59-21.01c11.4,8.96,23.78,13.68,36.98,13.68,8.63,0,13.19-2.93,13.19-7.82,0-5.38-3.91-6.19-19.38-9.77-24.27-5.54-43-11.89-43-35.18s17.59-36.81,44.14-36.81c19.38,0,34.53,5.21,46.91,15.15l-15.8,22.32c-10.42-7.49-21.83-11.24-31.93-11.24-7.66,0-11.4,3.1-11.4,7.33,0,5.7,3.91,7.49,19.87,10.91,26.06,5.54,42.35,12.54,42.35,33.88,0,23.62-18.08,37.46-46.1,37.46-20.2,0-39.26-6.35-53.43-18.9Z"/>
    <path class="cls-6" d="M2593.72,678.18h-33.07v-28.18h97.73v28.18h-33.07v83.72h-31.6v-83.72Z"/>
    <path class="cls-6" d="M2672.39,650h31.6v111.9h-31.6v-111.9Z"/>
    <path class="cls-6" d="M2719.78,705.87c0-31.44,27.85-57.83,60.92-57.83s60.92,26.39,60.92,57.83-27.85,57.99-60.92,57.99-60.92-26.55-60.92-57.99ZM2809.05,705.87c0-15.8-13.03-29.16-28.34-29.16s-28.34,13.36-28.34,29.16,13.03,29.32,28.34,29.32,28.34-13.36,28.34-29.32ZM2787.87,614l27.04,4.56-24.76,22.15h-20.52l18.24-26.71Z"/>
    <path class="cls-6" d="M2856.76,650h31.6l43.65,59.94v-59.94h31.6v111.9h-31.6l-43.65-59.94v59.94h-31.6v-111.9Z"/>
    <path class="cls-6" d="M3027.46,650h41.7c39.09,0,66.78,23.13,66.78,55.87s-27.69,56.03-66.78,56.03h-41.7v-111.9ZM3074.37,733.24c16.94,0,28.99-11.4,28.99-27.37s-12.05-27.2-28.99-27.2h-15.31v54.57h15.31Z"/>
    <path class="cls-6" d="M3182.85,678.18v12.54h53.26v28.18h-53.26v14.82h58.48v28.18h-90.08v-111.9h90.08v28.18h-58.48Z"/>
    <path class="cls-6" d="M3301.58,650h53.59c25.08,0,42.84,16.13,42.84,39.09s-17.75,39.09-42.84,39.09h-21.99v33.72h-31.6v-111.9ZM3352.57,699.52c7.49,0,12.87-4.4,12.87-10.42s-5.38-10.42-12.87-10.42h-19.38v20.85h19.38Z"/>
    <path class="cls-6" d="M3475.71,761.91l-23.62-33.72h-9.77v33.72h-31.6v-111.9h53.59c25.08,0,42.84,16.13,42.84,39.09,0,15.96-8.47,28.51-22.15,34.86l26.71,37.95h-36ZM3442.31,699.52h19.38c7.49,0,12.87-4.4,12.87-10.42s-5.38-10.42-12.87-10.42h-19.38v20.85Z"/>
    <path class="cls-6" d="M3594.93,746.92h-38.93l-5.7,14.99h-35.67l43-111.9h35.67l43,111.9h-35.67l-5.7-14.99ZM3585.98,723.63l-10.42-27.2-10.59,27.2h21.01Z"/>
    <path class="cls-6" d="M3646.24,650h41.7c39.09,0,66.78,23.13,66.78,55.87s-27.69,56.03-66.78,56.03h-41.7v-111.9ZM3693.15,733.24c16.94,0,28.99-11.4,28.99-27.37s-12.05-27.2-28.99-27.2h-15.31v54.57h15.31Z"/>
    <path class="cls-6" d="M3765.79,705.87c0-31.44,27.85-57.83,60.92-57.83s60.92,26.39,60.92,57.83-27.85,57.99-60.92,57.99-60.92-26.55-60.92-57.99ZM3855.05,705.87c0-15.8-13.03-29.16-28.34-29.16s-28.34,13.36-28.34,29.16,13.03,29.32,28.34,29.32,28.34-13.36,28.34-29.32Z"/>
  </g>
  <g>
    <g>
      <rect class="cls-3" x=".67" y="232" width="231.5" height="231.5"/>
      <g>
        <rect class="cls-4" x="25.92" y="232" width="73.39" height="231.5"/>
        <rect class="cls-2" x="31.51" y="278.29" width="62.21" height="14.48"/>
        <rect class="cls-2" x="31.51" y="403.17" width="62.21" height="14.48"/>
        <rect class="cls-5" x="42.34" y="292.76" width="40.56" height="110.4"/>
        <rect class="cls-2" x="14.61" y="232" width="96.02" height="39.73"/>
        <rect class="cls-2" x="14.61" y="423.77" width="96.02" height="39.73"/>
        <rect class="cls-4" x="133.52" y="232" width="73.39" height="231.5"/>
        <rect class="cls-2" x="139.11" y="278.29" width="62.21" height="14.48"/>
        <rect class="cls-2" x="139.11" y="403.17" width="62.21" height="14.48"/>
        <rect class="cls-5" x="149.94" y="292.76" width="40.56" height="110.4"/>
        <rect class="cls-2" x="122.21" y="232" width="96.02" height="39.73"/>
        <rect class="cls-2" x="122.21" y="423.77" width="96.02" height="39.73"/>
      </g>
    </g>
    <g>
      <rect class="cls-5" x="232.17" y="232" width="231.5" height="231.5"/>
      <rect class="cls-4" x="248.06" y="249.75" width="199.71" height="196.01"/>
      <rect class="cls-3" x="265.81" y="265.65" width="164.21" height="164.21"/>
      <path class="cls-2" d="M405.79,289.88c0-31.96-25.91-57.88-57.87-57.88s-57.87,25.91-57.87,57.88c-31.96,0-57.87,25.91-57.87,57.87s25.91,57.88,57.87,57.88c0,31.96,25.91,57.88,57.87,57.88s57.87-25.91,57.87-57.88c31.96,0,57.87-25.91,57.87-57.88s-25.91-57.87-57.87-57.87Z"/>
      <rect class="cls-4" x="276.89" y="276.72" width="142.05" height="142.05" transform="translate(-143.99 347.87) rotate(-45)"/>
      <rect class="cls-3" x="295.72" y="295.55" width="104.4" height="104.4" transform="translate(-143.99 347.87) rotate(-45)"/>
    </g>
    <g>
      <rect class="cls-5" x=".67" y=".5" width="231.5" height="231.5"/>
      <rect class="cls-2" x="28.05" y="27.88" width="176.74" height="176.74"/>
      <rect class="cls-3" x="34.57" y="34.4" width="163.69" height="163.69" transform="translate(-48.1 116.37) rotate(-45)"/>
      <rect class="cls-2" x="58.33" y="58.16" width="116.17" height="116.17"/>
      <rect class="cls-4" x="75.34" y="75.18" width="82.15" height="82.15" transform="translate(116.3 -48.27) rotate(45)"/>
    </g>
    <g>
      <rect class="cls-3" x=".4" y="463.5" width="231.5" height="231.5"/>
      <rect class="cls-4" x="21.3" y="481.69" width="188.56" height="194.2"/>
      <rect class="cls-2" x="37.98" y="501.2" width="155.18" height="155.18"/>
      <rect class="cls-5" x="103.87" y="481.69" width="23.41" height="194.2"/>
      <rect class="cls-5" x="103.55" y="484.3" width="24.06" height="188.97" transform="translate(694.36 463.21) rotate(90)"/>
      <rect class="cls-4" x="60.47" y="523.68" width="110.22" height="110.22"/>
      <rect class="cls-5" x="76.61" y="539.82" width="77.94" height="77.94" transform="translate(443.12 87.8) rotate(45)"/>
    </g>
    <g>
      <rect class="cls-5" x="463.4" y="-.04" width="231.5" height="231.5"/>
      <rect class="cls-3" x="501.99" y="-.04" width="155.02" height="231.5"/>
      <rect class="cls-5" x="513.81" y="38.23" width="131.39" height="21.34"/>
      <rect class="cls-5" x="513.81" y="171.56" width="131.39" height="21.63"/>
      <rect class="cls-4" x="536.67" y="59.57" width="85.67" height="111.99"/>
      <rect class="cls-2" x="478.1" y="-.04" width="202.81" height="40.3"/>
      <rect class="cls-2" x="478.1" y="191.16" width="202.81" height="40.3"/>
      <rect class="cls-2" x="555.84" y="84.63" width="47.33" height="61.87"/>
    </g>
    <g>
      <rect class="cls-2" x="231.9" y="-.04" width="231.5" height="231.5"/>
      <g>
        <path class="cls-5" d="M462.94,103.39C457.16,48.82,413.37,5.55,358.45.4c5.78,54.57,49.57,97.84,104.49,102.99Z"/>
        <path class="cls-5" d="M231.9,103.39C237.68,48.82,281.47,5.55,336.39.4c-5.78,54.57-49.57,97.84-104.49,102.99Z"/>
        <path class="cls-5" d="M462.94,128.48c-5.78,54.57-49.57,97.84-104.49,102.99,5.78-54.57,49.57-97.84,104.49-102.99Z"/>
        <path class="cls-5" d="M231.9,128.48c5.78,54.57,49.57,97.84,104.49,102.99-5.78-54.57-49.57-97.84-104.49-102.99Z"/>
      </g>
      <path class="cls-4" d="M382.43,115.93l-.05-.05c-19.26-.03-34.87-15.64-34.9-34.91l-.05-.05-.05.05c-.03,19.27-15.64,34.88-34.9,34.91l-.05.05c19.31,0,34.96,15.65,34.96,34.96l.05.05.05-.05c0-19.31,15.65-34.96,34.96-34.96Z"/>
    </g>
  </g>
  <g>
    <g>
      <rect class="cls-3" x="3971.95" y="1032.1" width="231.32" height="231.32" transform="translate(2939.85 5235.36) rotate(-90)"/>
      <g>
        <rect class="cls-4" x="4050.94" y="1085.86" width="73.34" height="231.32" transform="translate(2886.09 5289.12) rotate(-90)"/>
        <rect class="cls-2" x="4118.7" y="1194.28" width="62.16" height="14.46" transform="translate(2948.27 5351.3) rotate(-90)"/>
        <rect class="cls-2" x="3993.92" y="1194.28" width="62.16" height="14.46" transform="translate(2823.48 5226.52) rotate(-90)"/>
        <rect class="cls-5" x="4067.13" y="1146.36" width="40.53" height="110.32" transform="translate(2885.88 5288.91) rotate(-90)"/>
        <rect class="cls-2" x="4135.44" y="1181.67" width="95.95" height="39.7" transform="translate(2981.9 5384.93) rotate(-90)"/>
        <rect class="cls-2" x="3943.82" y="1181.67" width="95.95" height="39.7" transform="translate(2790.28 5193.31) rotate(-90)"/>
        <rect class="cls-4" x="4050.94" y="978.34" width="73.34" height="231.32" transform="translate(2993.61 5181.6) rotate(-90)"/>
        <rect class="cls-2" x="4118.7" y="1086.76" width="62.16" height="14.46" transform="translate(3055.79 5243.78) rotate(-90)"/>
        <rect class="cls-2" x="3993.92" y="1086.76" width="62.16" height="14.46" transform="translate(2931 5119) rotate(-90)"/>
        <rect class="cls-5" x="4067.13" y="1038.84" width="40.53" height="110.32" transform="translate(2993.39 5181.39) rotate(-90)"/>
        <rect class="cls-2" x="4135.44" y="1074.15" width="95.95" height="39.7" transform="translate(3089.42 5277.41) rotate(-90)"/>
        <rect class="cls-2" x="3943.82" y="1074.15" width="95.95" height="39.7" transform="translate(2897.8 5085.79) rotate(-90)"/>
      </g>
    </g>
    <g>
      <rect class="cls-5" x="3971.95" y="800.78" width="231.32" height="231.32"/>
      <rect class="cls-4" x="3987.83" y="818.51" width="199.56" height="195.86" transform="translate(3171.17 5004.04) rotate(-90)"/>
      <rect class="cls-3" x="4005.57" y="834.4" width="164.08" height="164.08" transform="translate(3171.17 5004.04) rotate(-90)"/>
      <path class="cls-2" d="M4145.44,858.61c31.94,0,57.83,25.89,57.83,57.83,0,31.94-25.89,57.83-57.83,57.83,0,31.94-25.89,57.83-57.83,57.83-31.94,0-57.83-25.89-57.83-57.83-31.94,0-57.83-25.89-57.83-57.83,0-31.94,25.89-57.83,57.83-57.83,0-31.94,25.89-57.83,57.83-57.83,31.94,0,57.83,25.89,57.83,57.83Z"/>
      <rect class="cls-4" x="4016.64" y="845.46" width="141.94" height="141.94" transform="translate(549.21 3158.79) rotate(-45)"/>
      <rect class="cls-3" x="4035.45" y="864.27" width="104.32" height="104.32" transform="translate(549.21 3158.79) rotate(-45)"/>
    </g>
    <g>
      <rect class="cls-5" x="4203.27" y="1032.1" width="231.32" height="231.32" transform="translate(3171.17 5466.68) rotate(-90)"/>
      <rect class="cls-2" x="4230.62" y="1059.45" width="176.61" height="176.61" transform="translate(3171.17 5466.68) rotate(-90)"/>
      <rect class="cls-3" x="4237.14" y="1065.97" width="163.57" height="163.57" transform="translate(453.4 3390.11) rotate(-45)"/>
      <rect class="cls-2" x="4260.89" y="1089.71" width="116.08" height="116.08" transform="translate(3171.17 5466.68) rotate(-90)"/>
      <rect class="cls-4" x="4277.89" y="1106.71" width="82.08" height="82.08" transform="translate(6561.29 5013.29) rotate(-135)"/>
    </g>
    <g>
      <rect class="cls-3" x="3740.63" y="1032.36" width="231.32" height="231.32" transform="translate(2708.27 5004.31) rotate(-90)"/>
      <rect class="cls-4" x="3762.54" y="1051.58" width="188.41" height="194.05" transform="translate(2708.15 5005.35) rotate(-90)"/>
      <rect class="cls-2" x="3779.22" y="1071.07" width="155.06" height="155.06" transform="translate(2708.15 5005.35) rotate(-90)"/>
      <rect class="cls-5" x="3845.05" y="1051.58" width="23.39" height="194.05" transform="translate(2708.15 5005.35) rotate(-90)"/>
      <rect class="cls-5" x="3844.73" y="1054.19" width="24.04" height="188.82" transform="translate(7713.5 2297.2) rotate(-180)"/>
      <rect class="cls-4" x="3801.68" y="1093.53" width="110.13" height="110.13" transform="translate(2708.15 5005.35) rotate(-90)"/>
      <rect class="cls-5" x="3817.81" y="1109.66" width="77.88" height="77.88" transform="translate(5771.7 4687.91) rotate(-135)"/>
    </g>
    <g>
      <rect class="cls-5" x="4203.8" y="569.72" width="231.32" height="231.32" transform="translate(3634.09 5004.84) rotate(-90)"/>
      <rect class="cls-3" x="4242.02" y="569.37" width="154.9" height="231.32" transform="translate(3634.44 5004.49) rotate(-90)"/>
      <rect class="cls-5" x="4320.58" y="674.37" width="131.29" height="21.32" transform="translate(3701.2 5071.25) rotate(-90)"/>
      <rect class="cls-5" x="4187.21" y="674.22" width="131.29" height="21.61" transform="translate(3567.82 4937.88) rotate(-90)"/>
      <rect class="cls-4" x="4276.81" y="629.07" width="85.6" height="111.91" transform="translate(3634.58 5004.64) rotate(-90)"/>
      <rect class="cls-2" x="4313.66" y="664.89" width="202.65" height="40.27" transform="translate(3729.96 5100.02) rotate(-90)"/>
      <rect class="cls-2" x="4122.61" y="664.89" width="202.65" height="40.27" transform="translate(3538.91 4908.97) rotate(-90)"/>
      <rect class="cls-2" x="4295.97" y="654.12" width="47.29" height="61.82" transform="translate(3634.58 5004.64) rotate(-90)"/>
    </g>
    <g>
      <rect class="cls-2" x="4203.8" y="801.04" width="231.32" height="231.32" transform="translate(3402.77 5236.16) rotate(-90)"/>
      <g>
        <path class="cls-5" d="M4331.78,801.5c54.53,5.77,97.76,49.53,102.91,104.41-54.53-5.77-97.76-49.53-102.91-104.41Z"/>
        <path class="cls-5" d="M4331.78,1032.36c54.53-5.77,97.76-49.53,102.91-104.41-54.53,5.77-97.76,49.53-102.91,104.41Z"/>
        <path class="cls-5" d="M4306.71,801.5c-54.53,5.77-97.76,49.53-102.91,104.41,54.53-5.77,97.76-49.53,102.91-104.41Z"/>
        <path class="cls-5" d="M4306.71,1032.36c-54.53-5.77-97.76-49.53-102.91-104.41,54.53,5.77,97.76,49.53,102.91,104.41Z"/>
      </g>
      <path class="cls-4" d="M4319.25,881.95l.05.05c.03,19.25,15.63,34.85,34.88,34.88l.05.05-.05.05c-19.25.03-34.85,15.63-34.88,34.88l-.05.05c0-19.29-15.64-34.93-34.93-34.93l-.05-.05.05-.05c19.29,0,34.93-15.64,34.93-34.93Z"/>
    </g>
  </g>
</svg>